<svg width="165" height="48" viewBox="0 0 165 48" fill="none" xmlns="http://www.w3.org/2000/svg">
<mask id="path-1-inside-1_171_7015" fill="white">
<path d="M0 0H165V48H0V0Z"/>
</mask>
<path d="M165 48V47H0V48V49H165V48Z" fill="black" mask="url(#path-1-inside-1_171_7015)"/>
<path d="M9.86133 33.4043C8.6543 33.4043 7.64648 33.2461 6.83789 32.9297C6.04102 32.6016 5.37891 32.2793 4.85156 31.9629C4.32422 31.6348 3.87305 31.4707 3.49805 31.4707C3.18164 31.4707 2.92969 31.6055 2.74219 31.875C2.55469 32.1328 2.40234 32.6191 2.28516 33.334H1.74023C1.79883 32.7715 1.83398 31.8867 1.8457 30.6797C1.86914 29.4727 1.88086 27.8145 1.88086 25.7051H2.44336C2.64258 28.002 3.36328 29.7773 4.60547 31.0312C5.84766 32.2734 7.45898 32.8945 9.43945 32.8945C10.9629 32.8945 12.1523 32.5312 13.0078 31.8047C13.8633 31.0781 14.291 30.0059 14.291 28.5879C14.291 27.7441 14.1211 27.0586 13.7812 26.5312C13.4414 26.0039 12.8789 25.5293 12.0938 25.1074C11.3086 24.6738 10.2422 24.1992 8.89453 23.6836C7.28906 23.0391 5.99414 22.4297 5.00977 21.8555C4.02539 21.2812 3.31055 20.6543 2.86523 19.9746C2.41992 19.2949 2.19727 18.4805 2.19727 17.5312C2.19727 15.8555 2.77148 14.5254 3.91992 13.541C5.06836 12.5449 6.61523 12.0469 8.56055 12.0469C9.5918 12.0469 10.4473 12.1582 11.127 12.3809C11.8184 12.6035 12.4043 12.8262 12.8848 13.0488C13.3652 13.2715 13.8164 13.3828 14.2383 13.3828C14.5547 13.3828 14.8066 13.3066 14.9941 13.1543C15.1934 13.002 15.3516 12.6563 15.4688 12.1172H16.0312C15.9961 12.5508 15.9609 13.0371 15.9258 13.5762C15.9023 14.1152 15.8848 14.7949 15.873 15.6152C15.8613 16.4355 15.8555 17.4961 15.8555 18.7969H15.3105C15.0996 16.793 14.4258 15.2578 13.2891 14.1914C12.1523 13.1133 10.6992 12.5742 8.92969 12.5742C7.54688 12.5742 6.45703 12.9082 5.66016 13.5762C4.86328 14.2324 4.46484 15.1992 4.46484 16.4766C4.46484 17.1914 4.64648 17.8066 5.00977 18.3223C5.38477 18.8379 6.00586 19.3242 6.87305 19.7812C7.75195 20.2266 8.93555 20.7129 10.4238 21.2402C12.791 22.0488 14.4727 22.9277 15.4688 23.877C16.4648 24.8145 16.9629 26.0273 16.9629 27.5156C16.9629 29.332 16.3242 30.7676 15.0469 31.8223C13.7812 32.877 12.0527 33.4043 9.86133 33.4043ZM21.1008 33V32.4551C22.1789 32.4668 22.9113 32.3203 23.298 32.0156C23.6965 31.6992 23.8957 31.1484 23.8957 30.3633V13.6816C23.8957 12.7676 23.6906 12.1289 23.2805 11.7656C22.882 11.4023 22.1555 11.1914 21.1008 11.1328V10.5703C21.4758 10.6055 21.8391 10.6289 22.1906 10.6406C22.5539 10.6523 22.9113 10.6582 23.2629 10.6582C24.4465 10.6582 25.5305 10.5234 26.5148 10.2539V20.9941C27.007 19.8223 27.6809 18.9727 28.5363 18.4453C29.4035 17.9062 30.3527 17.6367 31.384 17.6367C32.8723 17.6367 34.0148 18.2051 34.8117 19.3418C35.6203 20.4668 36.0246 22.0957 36.0246 24.2285V30.3633C36.0246 31.1484 36.2238 31.6992 36.6223 32.0156C37.0324 32.3203 37.7707 32.4668 38.8371 32.4551V33C38.4387 32.9766 37.841 32.9531 37.0441 32.9297C36.259 32.8945 35.4914 32.877 34.7414 32.877C34.0617 32.877 33.3937 32.8945 32.7375 32.9297C32.093 32.9531 31.6125 32.9766 31.2961 33V32.4551C32.1164 32.4668 32.673 32.3203 32.966 32.0156C33.2707 31.6992 33.423 31.1484 33.423 30.3633V22.8047C33.423 21.3398 33.1652 20.2676 32.6496 19.5879C32.134 18.9082 31.3664 18.5684 30.3469 18.5684C29.5852 18.5684 28.8762 18.8789 28.2199 19.5C27.5637 20.1094 26.9953 21.0352 26.5148 22.2773V30.3633C26.5148 31.1484 26.6672 31.6992 26.9719 32.0156C27.2766 32.3203 27.8391 32.4668 28.6594 32.4551V33C28.2727 32.9766 27.757 32.9531 27.1125 32.9297C26.4797 32.8945 25.8352 32.877 25.1789 32.877C24.4875 32.877 23.7609 32.8887 22.9992 32.9121C22.2492 32.9238 21.6164 32.9531 21.1008 33ZM50.4281 33.4043C49.0102 33.4043 47.7387 33.0703 46.6137 32.4023C45.4887 31.7227 44.598 30.791 43.9418 29.6074C43.2973 28.4238 42.975 27.0703 42.975 25.5469C42.975 24.0469 43.2973 22.6992 43.9418 21.5039C44.5863 20.3086 45.4711 19.3652 46.5961 18.6738C47.7211 17.9824 48.9984 17.6367 50.4281 17.6367C51.8578 17.6367 53.1352 17.9824 54.2602 18.6738C55.3852 19.3652 56.2699 20.3086 56.9145 21.5039C57.5707 22.6992 57.8988 24.0469 57.8988 25.5469C57.8988 27.0352 57.5707 28.377 56.9145 29.5723C56.2699 30.7559 55.3852 31.6934 54.2602 32.3848C53.1352 33.0645 51.8578 33.4043 50.4281 33.4043ZM50.4281 32.877C51.3305 32.877 52.1273 32.5488 52.8187 31.8926C53.5219 31.2363 54.0727 30.3574 54.4711 29.2559C54.8695 28.1426 55.0687 26.9062 55.0687 25.5469C55.0687 24.1758 54.8695 22.9336 54.4711 21.8203C54.0727 20.707 53.5219 19.8223 52.8187 19.166C52.1273 18.5098 51.3305 18.1816 50.4281 18.1816C49.5375 18.1816 48.7406 18.5098 48.0375 19.166C47.3461 19.8223 46.8012 20.707 46.4027 21.8203C46.0043 22.9336 45.8051 24.1758 45.8051 25.5469C45.8051 26.918 46.0043 28.1602 46.4027 29.2734C46.8012 30.375 47.3461 31.2539 48.0375 31.9102C48.7406 32.5547 49.5375 32.877 50.4281 32.877ZM62.2301 39.7148V39.1699C63.3199 39.1465 64.0699 38.9883 64.4801 38.6953C64.902 38.4141 65.1129 37.875 65.1129 37.0781V21.1348C65.1129 20.1973 64.8961 19.5645 64.4625 19.2363C64.0289 18.8965 63.2848 18.6797 62.2301 18.5859V18.041C62.5582 18.0762 62.9039 18.0996 63.2672 18.1113C63.6422 18.123 64.0172 18.1289 64.3922 18.1289C65.0367 18.1289 65.6344 18.0996 66.1852 18.041C66.7477 17.9824 67.2633 17.877 67.732 17.7246V20.0098C68.2242 19.248 68.8805 18.6621 69.7008 18.252C70.5328 17.8418 71.4352 17.6367 72.4078 17.6367C73.6383 17.6367 74.7105 17.9766 75.6246 18.6562C76.5504 19.3359 77.2652 20.2559 77.7691 21.416C78.2848 22.5645 78.5426 23.8594 78.5426 25.3008C78.5426 26.8359 78.2555 28.2188 77.6813 29.4492C77.1188 30.668 76.3219 31.6348 75.2906 32.3496C74.2711 33.0527 73.0816 33.4043 71.7223 33.4043C70.8785 33.4043 70.1109 33.2051 69.4195 32.8066C68.7281 32.3965 68.1656 31.8867 67.732 31.2773V36.8496C67.732 37.6699 68.0133 38.2559 68.5758 38.6074C69.15 38.959 70.1168 39.1465 71.4762 39.1699V39.7148C70.9605 39.6914 70.2281 39.6621 69.2789 39.627C68.3297 39.6035 67.398 39.5918 66.484 39.5918C65.5934 39.5918 64.7613 39.6035 63.9879 39.627C63.2262 39.6621 62.6402 39.6914 62.2301 39.7148ZM71.3531 18.5508C70.6734 18.5508 70.0055 18.7617 69.3492 19.1836C68.693 19.5938 68.1539 20.2441 67.732 21.1348V30.2754C68.0953 30.9551 68.5641 31.5176 69.1383 31.9629C69.7125 32.3965 70.3336 32.6133 71.0016 32.6133C72.5016 32.6133 73.6617 32.0156 74.482 30.8203C75.3023 29.625 75.7125 27.9258 75.7125 25.7227C75.7125 23.5898 75.3258 21.8613 74.5523 20.5371C73.7906 19.2129 72.7242 18.5508 71.3531 18.5508Z" fill="white"/>
<path d="M83.7352 33V32.4551C84.6961 32.4199 85.4109 32.3379 85.8797 32.209C86.3484 32.0684 86.659 31.8223 86.8113 31.4707C86.9637 31.1191 87.0398 30.6152 87.0398 29.959V15.4746C87.0398 14.7949 86.9637 14.2852 86.8113 13.9453C86.659 13.6055 86.3484 13.3711 85.8797 13.2422C85.4109 13.1016 84.6961 13.0137 83.7352 12.9785V12.4512C84.825 12.4746 86.2312 12.498 87.9539 12.5215C89.6883 12.5332 91.7039 12.5391 94.0008 12.5391C94.8914 12.5391 95.9637 12.5391 97.2176 12.5391C98.4715 12.5273 99.6258 12.498 100.68 12.4512C100.622 13.7402 100.78 15.5098 101.155 17.7598H100.593C100.159 16.5762 99.7195 15.6445 99.2742 14.9648C98.8289 14.2734 98.2957 13.7871 97.6746 13.5059C97.0652 13.2129 96.2742 13.0664 95.3016 13.0664H89.7469V22.3828H92.6121C93.9715 22.3828 94.95 22.0664 95.5477 21.4336C96.1453 20.8008 96.5437 19.7637 96.743 18.3223H97.2176C97.1473 19.4824 97.1121 20.3613 97.1121 20.959C97.1238 21.5566 97.1297 22.125 97.1297 22.6641C97.1297 22.8984 97.1355 23.168 97.1473 23.4727C97.159 23.7656 97.1766 24.1875 97.2 24.7383C97.2352 25.2773 97.2762 26.0332 97.323 27.0059H96.8309C96.7137 25.9395 96.5086 25.1133 96.2156 24.5273C95.9344 23.9414 95.5066 23.5312 94.9324 23.2969C94.3699 23.0508 93.5965 22.9277 92.6121 22.9277H89.7469V29.959C89.7469 30.6621 89.8172 31.1836 89.9578 31.5234C90.0984 31.8633 90.3797 32.0918 90.8016 32.209C91.2352 32.3145 91.8797 32.3672 92.7352 32.3672H94.0008C95.6062 32.3672 96.8953 32.1914 97.868 31.8398C98.8523 31.4883 99.6551 30.8672 100.276 29.9766C100.897 29.0742 101.471 27.8086 101.999 26.1797H102.544C102.345 27.668 102.204 28.9688 102.122 30.082C102.052 31.1836 102.028 32.1562 102.052 33C100.973 32.9766 99.7781 32.959 98.4656 32.9473C97.1648 32.9238 95.6766 32.9121 94.0008 32.9121C91.7039 32.9121 89.6941 32.9238 87.9715 32.9473C86.2488 32.959 84.8367 32.9766 83.7352 33ZM112.078 33.4043C110.906 33.4043 109.969 33.0645 109.266 32.3848C108.574 31.7051 108.229 30.709 108.229 29.3965C108.229 28.459 108.404 27.7148 108.756 27.1641C109.119 26.6133 109.588 26.1914 110.162 25.8984C110.736 25.5938 111.352 25.3594 112.008 25.1953C112.664 25.0195 113.297 24.8555 113.906 24.7031C114.516 24.5391 115.025 24.3223 115.436 24.0527C115.857 23.7715 116.115 23.373 116.209 22.8574C116.127 21.4395 115.875 20.3379 115.453 19.5527C115.043 18.7676 114.451 18.375 113.678 18.375C112.928 18.375 112.271 18.4922 111.709 18.7266C111.158 18.9492 110.883 19.2539 110.883 19.6406C110.883 20.0039 111.012 20.4023 111.27 20.8359C111.527 21.2695 111.656 21.6797 111.656 22.0664C111.656 22.4297 111.533 22.7168 111.287 22.9277C111.053 23.1387 110.736 23.2441 110.338 23.2441C109.881 23.2441 109.512 23.0859 109.23 22.7695C108.949 22.4531 108.809 22.0254 108.809 21.4863C108.809 20.7949 109.055 20.1562 109.547 19.5703C110.039 18.9844 110.707 18.5156 111.551 18.1641C112.395 17.8125 113.332 17.6367 114.363 17.6367C116.004 17.6367 117.158 18.2051 117.826 19.3418C118.506 20.4785 118.846 22.0898 118.846 24.1758V31.1895C118.846 32.1035 119.127 32.5605 119.689 32.5605C120.006 32.5605 120.311 32.5195 120.604 32.4375C120.896 32.3438 121.143 32.0801 121.342 31.6465L121.641 32.1211C121.207 32.6484 120.779 32.9941 120.357 33.1582C119.947 33.3223 119.414 33.4043 118.758 33.4043C117.094 33.4043 116.262 32.5195 116.262 30.75C115.758 31.5703 115.16 32.2207 114.469 32.7012C113.777 33.1699 112.98 33.4043 112.078 33.4043ZM113.273 32.1562C113.836 32.1562 114.375 32.0098 114.891 31.7168C115.418 31.4238 115.869 30.8965 116.244 30.1348V23.9824C116.244 23.7949 116.244 23.6074 116.244 23.4199C116.115 24.0293 115.852 24.457 115.453 24.7031C115.066 24.9492 114.621 25.1367 114.117 25.2656C113.613 25.3945 113.115 25.5645 112.623 25.7754C112.143 25.9863 111.744 26.3496 111.428 26.8652C111.111 27.3809 110.953 28.166 110.953 29.2207C110.953 30.1816 111.158 30.9141 111.568 31.418C111.99 31.9102 112.559 32.1562 113.273 32.1562ZM130.191 33.4043C129.452 33.4043 128.849 33.3164 128.38 33.1406C127.923 32.9766 127.554 32.8125 127.273 32.6484C126.991 32.4844 126.739 32.4023 126.517 32.4023C126.318 32.4023 126.118 32.4727 125.919 32.6133C125.732 32.7539 125.597 32.9941 125.515 33.334H124.988C125.046 33.2988 125.087 33.1406 125.111 32.8594C125.146 32.5664 125.157 31.9922 125.146 31.1367C125.146 30.2812 125.122 28.9805 125.075 27.2344H125.585C125.82 28.957 126.259 30.3281 126.904 31.3477C127.548 32.3555 128.486 32.8594 129.716 32.8594C130.712 32.8594 131.486 32.5898 132.036 32.0508C132.599 31.5 132.88 30.6914 132.88 29.625C132.88 28.6523 132.669 27.9141 132.247 27.4102C131.837 26.8945 131.075 26.4727 129.962 26.1445C128.474 25.6992 127.355 25.2188 126.605 24.7031C125.855 24.1758 125.48 23.3086 125.48 22.1016C125.48 20.7188 125.872 19.6289 126.657 18.832C127.443 18.0352 128.456 17.6367 129.698 17.6367C130.366 17.6367 130.888 17.7246 131.263 17.9004C131.638 18.0645 131.943 18.2344 132.177 18.4102C132.423 18.5742 132.675 18.6562 132.933 18.6562C133.308 18.6562 133.601 18.3457 133.812 17.7246H134.304C134.222 18.3223 134.175 19.002 134.163 19.7637C134.163 20.5254 134.187 21.5508 134.234 22.8398H133.724C133.618 21.3984 133.226 20.2676 132.546 19.4473C131.878 18.627 131.04 18.2168 130.032 18.2168C129.236 18.2168 128.597 18.4453 128.116 18.9023C127.648 19.3477 127.413 20.0332 127.413 20.959C127.413 21.8496 127.689 22.5059 128.239 22.9277C128.802 23.3379 129.704 23.7305 130.946 24.1055C132.294 24.5039 133.273 25.0254 133.882 25.6699C134.503 26.3145 134.814 27.252 134.814 28.4824C134.814 30.041 134.398 31.2539 133.566 32.1211C132.745 32.9766 131.62 33.4043 130.191 33.4043ZM146.616 33.4043C145.268 33.4043 144.09 33.082 143.082 32.4375C142.075 31.793 141.289 30.8965 140.727 29.748C140.164 28.5996 139.883 27.2812 139.883 25.793C139.883 23.3438 140.498 21.375 141.729 19.8867C142.971 18.3867 144.676 17.6367 146.844 17.6367C148.039 17.6367 149.077 17.9531 149.955 18.5859C150.846 19.2188 151.532 20.0391 152.012 21.0469C152.493 22.0547 152.721 23.1152 152.698 24.2285H142.713C142.702 24.3574 142.696 24.5391 142.696 24.7734C142.696 27.3867 143.112 29.3203 143.944 30.5742C144.788 31.8281 145.977 32.4551 147.512 32.4551C148.496 32.4551 149.405 32.2207 150.237 31.752C151.069 31.2832 151.725 30.5156 152.205 29.4492L152.68 30.0293C152.223 31.1543 151.455 31.998 150.377 32.5605C149.311 33.123 148.057 33.4043 146.616 33.4043ZM146.668 18.1992C146.036 18.1992 145.438 18.4688 144.875 19.0078C144.325 19.5352 143.856 20.2207 143.469 21.0645C143.094 21.8965 142.854 22.7578 142.748 23.6484H149.92C149.955 21.6328 149.704 20.2207 149.164 19.4121C148.637 18.6035 147.805 18.1992 146.668 18.1992Z" fill="#E11D48" fill-opacity="0.9"/>
</svg>
