<svg width="175" height="48" viewBox="0 0 175 48" fill="none" xmlns="http://www.w3.org/2000/svg">
<mask id="path-1-inside-1_171_7012" fill="white">
<path d="M0 0H175V48H0V0Z"/>
</mask>
<path d="M175 48V47H0V48V49H175V48Z" fill="black" mask="url(#path-1-inside-1_171_7012)"/>
<path d="M19.8613 33.4043C18.6543 33.4043 17.6465 33.2461 16.8379 32.9297C16.041 32.6016 15.3789 32.2793 14.8516 31.9629C14.3242 31.6348 13.873 31.4707 13.498 31.4707C13.1816 31.4707 12.9297 31.6055 12.7422 31.875C12.5547 32.1328 12.4023 32.6191 12.2852 33.334H11.7402C11.7988 32.7715 11.834 31.8867 11.8457 30.6797C11.8691 29.4727 11.8809 27.8145 11.8809 25.7051H12.4434C12.6426 28.002 13.3633 29.7773 14.6055 31.0312C15.8477 32.2734 17.459 32.8945 19.4395 32.8945C20.9629 32.8945 22.1523 32.5312 23.0078 31.8047C23.8633 31.0781 24.291 30.0059 24.291 28.5879C24.291 27.7441 24.1211 27.0586 23.7812 26.5312C23.4414 26.0039 22.8789 25.5293 22.0938 25.1074C21.3086 24.6738 20.2422 24.1992 18.8945 23.6836C17.2891 23.0391 15.9941 22.4297 15.0098 21.8555C14.0254 21.2812 13.3105 20.6543 12.8652 19.9746C12.4199 19.2949 12.1973 18.4805 12.1973 17.5312C12.1973 15.8555 12.7715 14.5254 13.9199 13.541C15.0684 12.5449 16.6152 12.0469 18.5605 12.0469C19.5918 12.0469 20.4473 12.1582 21.127 12.3809C21.8184 12.6035 22.4043 12.8262 22.8848 13.0488C23.3652 13.2715 23.8164 13.3828 24.2383 13.3828C24.5547 13.3828 24.8066 13.3066 24.9941 13.1543C25.1934 13.002 25.3516 12.6563 25.4688 12.1172H26.0312C25.9961 12.5508 25.9609 13.0371 25.9258 13.5762C25.9023 14.1152 25.8848 14.7949 25.873 15.6152C25.8613 16.4355 25.8555 17.4961 25.8555 18.7969H25.3105C25.0996 16.793 24.4258 15.2578 23.2891 14.1914C22.1523 13.1133 20.6992 12.5742 18.9297 12.5742C17.5469 12.5742 16.457 12.9082 15.6602 13.5762C14.8633 14.2324 14.4648 15.1992 14.4648 16.4766C14.4648 17.1914 14.6465 17.8066 15.0098 18.3223C15.3848 18.8379 16.0059 19.3242 16.873 19.7812C17.752 20.2266 18.9355 20.7129 20.4238 21.2402C22.791 22.0488 24.4727 22.9277 25.4688 23.877C26.4648 24.8145 26.9629 26.0273 26.9629 27.5156C26.9629 29.332 26.3242 30.7676 25.0469 31.8223C23.7812 32.877 22.0527 33.4043 19.8613 33.4043ZM31.1008 33V32.4551C32.1789 32.4668 32.9113 32.3203 33.298 32.0156C33.6965 31.6992 33.8957 31.1484 33.8957 30.3633V13.6816C33.8957 12.7676 33.6906 12.1289 33.2805 11.7656C32.882 11.4023 32.1555 11.1914 31.1008 11.1328V10.5703C31.4758 10.6055 31.8391 10.6289 32.1906 10.6406C32.5539 10.6523 32.9113 10.6582 33.2629 10.6582C34.4465 10.6582 35.5305 10.5234 36.5148 10.2539V20.9941C37.007 19.8223 37.6809 18.9727 38.5363 18.4453C39.4035 17.9062 40.3527 17.6367 41.384 17.6367C42.8723 17.6367 44.0148 18.2051 44.8117 19.3418C45.6203 20.4668 46.0246 22.0957 46.0246 24.2285V30.3633C46.0246 31.1484 46.2238 31.6992 46.6223 32.0156C47.0324 32.3203 47.7707 32.4668 48.8371 32.4551V33C48.4387 32.9766 47.841 32.9531 47.0441 32.9297C46.259 32.8945 45.4914 32.877 44.7414 32.877C44.0617 32.877 43.3937 32.8945 42.7375 32.9297C42.093 32.9531 41.6125 32.9766 41.2961 33V32.4551C42.1164 32.4668 42.673 32.3203 42.966 32.0156C43.2707 31.6992 43.423 31.1484 43.423 30.3633V22.8047C43.423 21.3398 43.1652 20.2676 42.6496 19.5879C42.134 18.9082 41.3664 18.5684 40.3469 18.5684C39.5852 18.5684 38.8762 18.8789 38.2199 19.5C37.5637 20.1094 36.9953 21.0352 36.5148 22.2773V30.3633C36.5148 31.1484 36.6672 31.6992 36.9719 32.0156C37.2766 32.3203 37.8391 32.4668 38.6594 32.4551V33C38.2727 32.9766 37.757 32.9531 37.1125 32.9297C36.4797 32.8945 35.8352 32.877 35.1789 32.877C34.4875 32.877 33.7609 32.8887 32.9992 32.9121C32.2492 32.9238 31.6164 32.9531 31.1008 33ZM60.4281 33.4043C59.0102 33.4043 57.7387 33.0703 56.6137 32.4023C55.4887 31.7227 54.598 30.791 53.9418 29.6074C53.2973 28.4238 52.975 27.0703 52.975 25.5469C52.975 24.0469 53.2973 22.6992 53.9418 21.5039C54.5863 20.3086 55.4711 19.3652 56.5961 18.6738C57.7211 17.9824 58.9984 17.6367 60.4281 17.6367C61.8578 17.6367 63.1352 17.9824 64.2602 18.6738C65.3852 19.3652 66.2699 20.3086 66.9145 21.5039C67.5707 22.6992 67.8988 24.0469 67.8988 25.5469C67.8988 27.0352 67.5707 28.377 66.9145 29.5723C66.2699 30.7559 65.3852 31.6934 64.2602 32.3848C63.1352 33.0645 61.8578 33.4043 60.4281 33.4043ZM60.4281 32.877C61.3305 32.877 62.1273 32.5488 62.8187 31.8926C63.5219 31.2363 64.0727 30.3574 64.4711 29.2559C64.8695 28.1426 65.0687 26.9062 65.0687 25.5469C65.0687 24.1758 64.8695 22.9336 64.4711 21.8203C64.0727 20.707 63.5219 19.8223 62.8187 19.166C62.1273 18.5098 61.3305 18.1816 60.4281 18.1816C59.5375 18.1816 58.7406 18.5098 58.0375 19.166C57.3461 19.8223 56.8012 20.707 56.4027 21.8203C56.0043 22.9336 55.8051 24.1758 55.8051 25.5469C55.8051 26.918 56.0043 28.1602 56.4027 29.2734C56.8012 30.375 57.3461 31.2539 58.0375 31.9102C58.7406 32.5547 59.5375 32.877 60.4281 32.877ZM72.2301 39.7148V39.1699C73.3199 39.1465 74.0699 38.9883 74.4801 38.6953C74.902 38.4141 75.1129 37.875 75.1129 37.0781V21.1348C75.1129 20.1973 74.8961 19.5645 74.4625 19.2363C74.0289 18.8965 73.2848 18.6797 72.2301 18.5859V18.041C72.5582 18.0762 72.9039 18.0996 73.2672 18.1113C73.6422 18.123 74.0172 18.1289 74.3922 18.1289C75.0367 18.1289 75.6344 18.0996 76.1852 18.041C76.7477 17.9824 77.2633 17.877 77.732 17.7246V20.0098C78.2242 19.248 78.8805 18.6621 79.7008 18.252C80.5328 17.8418 81.4352 17.6367 82.4078 17.6367C83.6383 17.6367 84.7105 17.9766 85.6246 18.6562C86.5504 19.3359 87.2652 20.2559 87.7691 21.416C88.2848 22.5645 88.5426 23.8594 88.5426 25.3008C88.5426 26.8359 88.2555 28.2188 87.6813 29.4492C87.1188 30.668 86.3219 31.6348 85.2906 32.3496C84.2711 33.0527 83.0816 33.4043 81.7223 33.4043C80.8785 33.4043 80.1109 33.2051 79.4195 32.8066C78.7281 32.3965 78.1656 31.8867 77.732 31.2773V36.8496C77.732 37.6699 78.0133 38.2559 78.5758 38.6074C79.15 38.959 80.1168 39.1465 81.4762 39.1699V39.7148C80.9605 39.6914 80.2281 39.6621 79.2789 39.627C78.3297 39.6035 77.398 39.5918 76.484 39.5918C75.5934 39.5918 74.7613 39.6035 73.9879 39.627C73.2262 39.6621 72.6402 39.6914 72.2301 39.7148ZM81.3531 18.5508C80.6734 18.5508 80.0055 18.7617 79.3492 19.1836C78.693 19.5938 78.1539 20.2441 77.732 21.1348V30.2754C78.0953 30.9551 78.5641 31.5176 79.1383 31.9629C79.7125 32.3965 80.3336 32.6133 81.0016 32.6133C82.5016 32.6133 83.6617 32.0156 84.482 30.8203C85.3023 29.625 85.7125 27.9258 85.7125 25.7227C85.7125 23.5898 85.3258 21.8613 84.5523 20.5371C83.7906 19.2129 82.7242 18.5508 81.3531 18.5508Z" fill="#0A0A0A"/>
<path d="M93.7352 33V32.4551C94.6961 32.4199 95.4109 32.3379 95.8797 32.209C96.3484 32.0684 96.659 31.8223 96.8113 31.4707C96.9637 31.1191 97.0398 30.6152 97.0398 29.959V15.4746C97.0398 14.7949 96.9637 14.2852 96.8113 13.9453C96.659 13.6055 96.3484 13.3711 95.8797 13.2422C95.4109 13.1016 94.6961 13.0137 93.7352 12.9785V12.4512C94.825 12.4746 96.2312 12.498 97.9539 12.5215C99.6883 12.5332 101.704 12.5391 104.001 12.5391C104.891 12.5391 105.964 12.5391 107.218 12.5391C108.471 12.5273 109.626 12.498 110.68 12.4512C110.622 13.7402 110.78 15.5098 111.155 17.7598H110.593C110.159 16.5762 109.72 15.6445 109.274 14.9648C108.829 14.2734 108.296 13.7871 107.675 13.5059C107.065 13.2129 106.274 13.0664 105.302 13.0664H99.7469V22.3828H102.612C103.971 22.3828 104.95 22.0664 105.548 21.4336C106.145 20.8008 106.544 19.7637 106.743 18.3223H107.218C107.147 19.4824 107.112 20.3613 107.112 20.959C107.124 21.5566 107.13 22.125 107.13 22.6641C107.13 22.8984 107.136 23.168 107.147 23.4727C107.159 23.7656 107.177 24.1875 107.2 24.7383C107.235 25.2773 107.276 26.0332 107.323 27.0059H106.831C106.714 25.9395 106.509 25.1133 106.216 24.5273C105.934 23.9414 105.507 23.5312 104.932 23.2969C104.37 23.0508 103.596 22.9277 102.612 22.9277H99.7469V29.959C99.7469 30.6621 99.8172 31.1836 99.9578 31.5234C100.098 31.8633 100.38 32.0918 100.802 32.209C101.235 32.3145 101.88 32.3672 102.735 32.3672H104.001C105.606 32.3672 106.895 32.1914 107.868 31.8398C108.852 31.4883 109.655 30.8672 110.276 29.9766C110.897 29.0742 111.471 27.8086 111.999 26.1797H112.544C112.345 27.668 112.204 28.9688 112.122 30.082C112.052 31.1836 112.028 32.1562 112.052 33C110.973 32.9766 109.778 32.959 108.466 32.9473C107.165 32.9238 105.677 32.9121 104.001 32.9121C101.704 32.9121 99.6941 32.9238 97.9715 32.9473C96.2488 32.959 94.8367 32.9766 93.7352 33ZM122.078 33.4043C120.906 33.4043 119.969 33.0645 119.266 32.3848C118.574 31.7051 118.229 30.709 118.229 29.3965C118.229 28.459 118.404 27.7148 118.756 27.1641C119.119 26.6133 119.588 26.1914 120.162 25.8984C120.736 25.5938 121.352 25.3594 122.008 25.1953C122.664 25.0195 123.297 24.8555 123.906 24.7031C124.516 24.5391 125.025 24.3223 125.436 24.0527C125.857 23.7715 126.115 23.373 126.209 22.8574C126.127 21.4395 125.875 20.3379 125.453 19.5527C125.043 18.7676 124.451 18.375 123.678 18.375C122.928 18.375 122.271 18.4922 121.709 18.7266C121.158 18.9492 120.883 19.2539 120.883 19.6406C120.883 20.0039 121.012 20.4023 121.27 20.8359C121.527 21.2695 121.656 21.6797 121.656 22.0664C121.656 22.4297 121.533 22.7168 121.287 22.9277C121.053 23.1387 120.736 23.2441 120.338 23.2441C119.881 23.2441 119.512 23.0859 119.23 22.7695C118.949 22.4531 118.809 22.0254 118.809 21.4863C118.809 20.7949 119.055 20.1562 119.547 19.5703C120.039 18.9844 120.707 18.5156 121.551 18.1641C122.395 17.8125 123.332 17.6367 124.363 17.6367C126.004 17.6367 127.158 18.2051 127.826 19.3418C128.506 20.4785 128.846 22.0898 128.846 24.1758V31.1895C128.846 32.1035 129.127 32.5605 129.689 32.5605C130.006 32.5605 130.311 32.5195 130.604 32.4375C130.896 32.3438 131.143 32.0801 131.342 31.6465L131.641 32.1211C131.207 32.6484 130.779 32.9941 130.357 33.1582C129.947 33.3223 129.414 33.4043 128.758 33.4043C127.094 33.4043 126.262 32.5195 126.262 30.75C125.758 31.5703 125.16 32.2207 124.469 32.7012C123.777 33.1699 122.98 33.4043 122.078 33.4043ZM123.273 32.1562C123.836 32.1562 124.375 32.0098 124.891 31.7168C125.418 31.4238 125.869 30.8965 126.244 30.1348V23.9824C126.244 23.7949 126.244 23.6074 126.244 23.4199C126.115 24.0293 125.852 24.457 125.453 24.7031C125.066 24.9492 124.621 25.1367 124.117 25.2656C123.613 25.3945 123.115 25.5645 122.623 25.7754C122.143 25.9863 121.744 26.3496 121.428 26.8652C121.111 27.3809 120.953 28.166 120.953 29.2207C120.953 30.1816 121.158 30.9141 121.568 31.418C121.99 31.9102 122.559 32.1562 123.273 32.1562ZM140.191 33.4043C139.452 33.4043 138.849 33.3164 138.38 33.1406C137.923 32.9766 137.554 32.8125 137.273 32.6484C136.991 32.4844 136.739 32.4023 136.517 32.4023C136.318 32.4023 136.118 32.4727 135.919 32.6133C135.732 32.7539 135.597 32.9941 135.515 33.334H134.988C135.046 33.2988 135.087 33.1406 135.111 32.8594C135.146 32.5664 135.157 31.9922 135.146 31.1367C135.146 30.2812 135.122 28.9805 135.075 27.2344H135.585C135.82 28.957 136.259 30.3281 136.904 31.3477C137.548 32.3555 138.486 32.8594 139.716 32.8594C140.712 32.8594 141.486 32.5898 142.036 32.0508C142.599 31.5 142.88 30.6914 142.88 29.625C142.88 28.6523 142.669 27.9141 142.247 27.4102C141.837 26.8945 141.075 26.4727 139.962 26.1445C138.474 25.6992 137.355 25.2188 136.605 24.7031C135.855 24.1758 135.48 23.3086 135.48 22.1016C135.48 20.7188 135.872 19.6289 136.657 18.832C137.443 18.0352 138.456 17.6367 139.698 17.6367C140.366 17.6367 140.888 17.7246 141.263 17.9004C141.638 18.0645 141.943 18.2344 142.177 18.4102C142.423 18.5742 142.675 18.6562 142.933 18.6562C143.308 18.6562 143.601 18.3457 143.812 17.7246H144.304C144.222 18.3223 144.175 19.002 144.163 19.7637C144.163 20.5254 144.187 21.5508 144.234 22.8398H143.724C143.618 21.3984 143.226 20.2676 142.546 19.4473C141.878 18.627 141.04 18.2168 140.032 18.2168C139.236 18.2168 138.597 18.4453 138.116 18.9023C137.648 19.3477 137.413 20.0332 137.413 20.959C137.413 21.8496 137.689 22.5059 138.239 22.9277C138.802 23.3379 139.704 23.7305 140.946 24.1055C142.294 24.5039 143.273 25.0254 143.882 25.6699C144.503 26.3145 144.814 27.252 144.814 28.4824C144.814 30.041 144.398 31.2539 143.566 32.1211C142.745 32.9766 141.62 33.4043 140.191 33.4043ZM156.616 33.4043C155.268 33.4043 154.09 33.082 153.082 32.4375C152.075 31.793 151.289 30.8965 150.727 29.748C150.164 28.5996 149.883 27.2812 149.883 25.793C149.883 23.3438 150.498 21.375 151.729 19.8867C152.971 18.3867 154.676 17.6367 156.844 17.6367C158.039 17.6367 159.077 17.9531 159.955 18.5859C160.846 19.2188 161.532 20.0391 162.012 21.0469C162.493 22.0547 162.721 23.1152 162.698 24.2285H152.713C152.702 24.3574 152.696 24.5391 152.696 24.7734C152.696 27.3867 153.112 29.3203 153.944 30.5742C154.788 31.8281 155.977 32.4551 157.512 32.4551C158.496 32.4551 159.405 32.2207 160.237 31.752C161.069 31.2832 161.725 30.5156 162.205 29.4492L162.68 30.0293C162.223 31.1543 161.455 31.998 160.377 32.5605C159.311 33.123 158.057 33.4043 156.616 33.4043ZM156.668 18.1992C156.036 18.1992 155.438 18.4688 154.875 19.0078C154.325 19.5352 153.856 20.2207 153.469 21.0645C153.094 21.8965 152.854 22.7578 152.748 23.6484H159.92C159.955 21.6328 159.704 20.2207 159.164 19.4121C158.637 18.6035 157.805 18.1992 156.668 18.1992Z" fill="#E11D48" fill-opacity="0.9"/>
</svg>
